<?xml version="1.0" encoding="UTF-8"?>
<svg width="17px" height="17px" viewBox="0 0 17 17" version="1.1" xmlns="http://www.w3.org/2000/svg" xmlns:xlink="http://www.w3.org/1999/xlink">
    <title>close_icon</title>
    <g id="Page-1" stroke="none" stroke-width="1" fill="none" fill-rule="evenodd">
        <g id="Artboard-Copy-8" transform="translate(-947, -223)" fill="#A7ADB6" fill-rule="nonzero">
            <g id="close_icon" transform="translate(947.5, 223.0772)">
                <path d="M10.1730111,8.00156372 L15.5469605,2.62761434 C16.1499676,2.02773162 16.1499676,1.05604659 15.5532093,0.453039481 C14.9533266,-0.149967629 13.9816415,-0.149967629 13.3786344,0.446790703 C13.3786344,0.446790703 13.37551,0.449915092 13.37551,0.449915092 L8.00156067,5.82386447 L2.6244869,0.453039481 C2.02460418,-0.14684324 1.04979476,-0.14684324 0.449912041,0.453039481 C-0.14997068,1.0529222 -0.14997068,2.02773162 0.449912041,2.62761434 L5.82386142,8.00156372 L0.449912041,13.3755131 C-0.14997068,13.9753958 -0.14997068,14.9502052 0.449912041,15.550088 C1.04979476,16.1499707 2.02460418,16.1499707 2.6244869,15.550088 L7.99843628,10.1761386 L13.3723857,15.550088 C13.9722684,16.1499707 14.9470778,16.1499707 15.5469605,15.550088 C16.1468432,14.9502052 16.1468432,13.9753958 15.5469605,13.3755131 L10.1730111,8.00156372 Z" id="Path"></path>
            </g>
        </g>
    </g>
</svg>