<?xml version="1.0" encoding="UTF-8"?>
<svg width="19px" height="17px" viewBox="0 0 19 17" version="1.1" xmlns="http://www.w3.org/2000/svg" xmlns:xlink="http://www.w3.org/1999/xlink">
    <title>file_stack.svg</title>
    <g id="Page-1" stroke="none" stroke-width="1" fill="none" fill-rule="evenodd">
        <g id="Artboard-Copy-10" transform="translate(-776, -299)" fill="#9398A0" fill-rule="nonzero">
            <g id="file_stack.svg" transform="translate(776.8616, 299.3507)">
                <path d="M17.6868554,3.76776955 L9.38974224,0.067705585 C9.18887206,-0.0225685283 8.95928097,-0.0225685283 8.75735358,0.067705585 L0.460651581,3.76776955 C0.189829241,3.88835039 0.0109843001,4.15376921 0.000940791055,4.45043449 C-0.00875031414,4.74651244 0.149772673,5.02314944 0.41166745,5.16246642 L8.70825198,9.58707265 C8.82266575,9.64844965 8.94806278,9.67846271 9.07381221,9.67846271 C9.20020772,9.67846271 9.32542854,9.64844965 9.44001852,9.58707265 L17.7370142,5.16246642 C17.998674,5.02314944 18.1573732,4.74651244 18.1478583,4.45043449 C18.1365227,4.15376921 17.9580889,3.88835039 17.6868554,3.76776955 Z" id="Path"></path>
                <path d="M17.0050714,7.07842729 L9.07334234,11.3096226 L1.14290539,7.07842729 C0.763248999,6.87585382 0.293142296,7.01957585 0.091919712,7.39852743 C-0.110712488,7.77730281 0.0330095392,8.24729204 0.411608716,8.4493369 L8.70819324,12.8751765 C8.82260702,12.9361424 8.94800405,12.9665079 9.07375348,12.9665079 C9.20014898,12.9665079 9.32536981,12.9365535 9.43995979,12.8751765 L17.7369555,8.4493369 C18.1146736,8.24729204 18.2582194,7.77730281 18.0567619,7.39852743 C17.8540123,7.01951711 17.3835531,6.87579509 17.0050714,7.07842729 Z" id="Path"></path>
                <path d="M17.0050714,10.1132703 L9.07334234,14.3430559 L1.14290539,10.1132703 C0.763248999,9.91052063 0.293142296,10.0544189 0.091919712,10.4328418 C-0.110712488,10.8116172 0.0330095392,11.2820763 0.411608716,11.4838275 L8.70819324,15.9082575 C8.82260702,15.9696345 8.94800405,16 9.07375348,16 C9.20014898,16 9.32536981,15.9700457 9.43995979,15.9082575 L17.7369555,11.4838275 C18.1146736,11.2820763 18.2582194,10.8116759 18.0567619,10.4328418 C17.8540123,10.0544189 17.3841992,9.9104619 17.0050714,10.1132703 Z" id="Path"></path>
            </g>
        </g>
    </g>
</svg>