<?xml version="1.0" encoding="UTF-8"?>
<svg width="140px" height="20px" viewBox="0 0 140 20" version="1.1" xmlns="http://www.w3.org/2000/svg" xmlns:xlink="http://www.w3.org/1999/xlink">
    <title>logo</title>
    <g id="Page-1" stroke="none" stroke-width="1" fill="none" fill-rule="evenodd">
        <g id="Artboard-Copy-4" transform="translate(-271, -160)" fill-rule="nonzero">
            <g id="logo" transform="translate(271.3463, 160)">
                <g id="FILE-NINJA" transform="translate(30.6914, 2.634)" fill="#9398A0">
                    <polygon id="Path" points="0 14.894 2.09 14.894 2.09 7.678 8.998 7.678 8.998 6.556 2.09 6.556 2.09 1.188 9.834 1.188 9.834 0.022 0 0.022"></polygon>
                    <polygon id="Path" points="12.298 14.894 14.102 14.894 14.102 0.022 12.298 0.022"></polygon>
                    <polygon id="Path" points="17.226 14.916 27.192 14.916 27.192 13.684 19.25 13.684 19.25 0.022 17.226 0.022"></polygon>
                    <polygon id="Path" points="29.678 14.872 39.688 14.872 39.688 13.574 31.724 13.574 31.724 7.568 38.412 7.568 38.412 6.402 31.724 6.402 31.724 1.408 39.688 1.408 39.688 0.022 29.678 0.022"></polygon>
                    <polygon id="Path" points="49.258 14.894 51.414 14.894 51.414 3.476 59.18 14.894 61.204 14.894 61.204 0 59.4 0 59.4 12.1 51.282 0 49.258 0"></polygon>
                    <polygon id="Path" points="64.416 14.894 66.22 14.894 66.22 0.022 64.416 0.022"></polygon>
                    <polygon id="Path" points="69.454 14.894 71.61 14.894 71.61 3.476 79.376 14.894 81.4 14.894 81.4 0 79.596 0 79.596 12.1 71.478 0 69.454 0"></polygon>
                    <path d="M83.776,9.702 C83.732,12.518 83.864,15.4 88.66,15.4 C91.432,15.4 93.082,13.706 93.082,10.494 L93.082,0.022 L91.146,0.022 L91.146,10.494 C91.146,12.408 90.464,13.948 88.374,13.948 C85.778,13.948 85.47,12.54 85.514,9.702 L83.776,9.702 Z" id="Path"></path>
                    <path d="M95.414,14.894 L97.438,14.894 L98.868,10.89 L105.292,10.89 L106.7,14.894 L108.372,14.894 L102.784,0 L101.046,0 L95.414,14.894 Z M99.286,9.966 L102.19,2.156 L104.852,9.966 L99.286,9.966 Z" id="Shape"></path>
                </g>
                <g id="ninja" fill="#8393A2">
                    <path d="M21.6258665,5.15821359 C20.5840599,4.86471059 19.4871983,5.25175151 18.8298548,5.57011205 C19.4444802,5.17533766 20.3470848,4.44139606 20.6405877,3.39995764 C21.1001758,1.76838306 19.8902586,0 19.8902586,0 C19.8902586,0 17.9351679,0.876826314 17.4755798,2.50840093 C17.278745,3.20735784 17.3884864,3.93098812 17.577956,4.53033079 C15.8080999,2.11491546 12.950957,0.545944988 9.72702751,0.545944988 C4.35503917,0.545944988 0,4.90080004 0,10.2729725 C0,15.6451449 4.35503917,20 9.72702751,20 C15.0992,20 19.454055,15.6451449 19.454055,10.2729725 C19.454055,9.10411622 19.2478296,7.98350198 18.869811,6.94537788 C19.2929414,7.49113875 19.9195353,8.09361161 20.7343098,8.32303738 C22.3658844,8.78280964 24.1342675,7.5728924 24.1342675,7.5728924 C24.1342675,7.5728924 23.2574412,5.61780169 21.6258665,5.15821359 L21.6258665,5.15821359 Z M13.285705,13.8579807 L6.01312844,13.8579807 C3.99359227,13.8579807 2.3504175,12.2148059 2.3504175,10.1952697 C2.3504175,8.1757335 3.99359227,6.5327429 6.01312844,6.5327429 L13.285705,6.5327429 C15.3052412,6.5327429 16.9482319,8.1757335 16.9482319,10.1952697 C16.9482319,12.2148059 15.3052412,13.8579807 13.285705,13.8579807 Z" id="Shape"></path>
                    <path d="M13.285705,7.75149833 L6.01312844,7.75149833 C4.77319807,7.75149833 3.76453474,8.76016166 3.76453474,10.0000921 C3.76453474,11.2398383 4.77319807,12.2485016 6.01312844,12.2485016 L13.285705,12.2485016 C14.5254514,12.2485016 15.5341146,11.2398383 15.5341146,10.0000921 C15.5341146,8.76016166 14.5254514,7.75149833 13.285705,7.75149833 L13.285705,7.75149833 Z M8.05973172,11.3311667 L5.7717342,10.0102192 L6.47879282,8.78557156 L8.76679034,10.1065191 L8.05973172,11.3311667 Z M11.2004345,11.3311667 L10.4933759,10.1065191 L12.7813734,8.78557156 L13.488432,10.0102192 L11.2004345,11.3311667 Z" id="Shape"></path>
                </g>
            </g>
        </g>
    </g>
</svg>