<?xml version="1.0" encoding="UTF-8"?>
<svg width="18px" height="17px" viewBox="0 0 18 17" version="1.1" xmlns="http://www.w3.org/2000/svg" xmlns:xlink="http://www.w3.org/1999/xlink">
    <title>analyse</title>
    <g id="Symbols" stroke="none" stroke-width="1" fill="none" fill-rule="evenodd">
        <g id="navigation" transform="translate(0, -43)" fill="#9398A0" fill-rule="nonzero">
            <g id="analyse" transform="translate(0.1297, 43.6442)">
                <path d="M16.5326127,8.46969617 L10.6408144,8.46969617 C10.3833237,8.46969617 10.1734271,8.6795928 10.1734271,8.93703101 C10.1734271,9.06816392 10.2291546,9.18628325 10.3160518,9.27150128 L14.4647636,13.420213 C14.5499816,13.5120428 14.673086,13.569502 14.8075773,13.569502 C14.9698798,13.569502 15.1125046,13.4874849 15.1961484,13.3628588 C16.216141,12.1788844 16.872068,10.675185 16.9901873,9.02062234 C16.9967466,8.99275856 17,8.96489478 17,8.93697853 C17,8.6795928 16.7917301,8.46969617 16.5326127,8.46969617 Z" id="Path"></path>
                <path d="M8.86157317,0 C8.60408248,0.00157422469 8.39586503,0.209896626 8.39586503,0.467334837 L8.39586503,7.01511255 C8.39586503,7.27422994 8.60408248,7.48412656 8.86157317,7.48412656 L15.4110301,7.48412656 C15.6685207,7.48412656 15.8783649,7.27422994 15.8783649,7.01511255 C15.6471113,3.2468909 12.631474,0.231253607 8.86157317,0 Z" id="Path"></path>
                <path d="M12.4609855,13.0382012 L7.63010967,8.20732539 C7.54814503,8.12368158 7.49897675,8.00724143 7.49897675,7.88098861 L7.4972451,1.0576691 C7.4972451,0.800230886 7.28902765,0.591960959 7.03153696,0.591960959 C3.10746707,0.831400535 0,4.09130503 0,8.0745133 C0,12.2150391 3.35677179,15.5733851 7.4972451,15.5733851 C9.38631473,15.5733851 11.1114026,14.8748491 12.4298158,13.7219919 C12.5315107,13.6366689 12.5954767,13.5088419 12.5954767,13.3661647 C12.5954767,13.2398594 12.5445768,13.1234192 12.4609855,13.0382012 Z" id="Path"></path>
            </g>
        </g>
    </g>
</svg>