<?xml version="1.0" encoding="UTF-8"?>
<svg width="19px" height="16px" viewBox="0 0 19 16" version="1.1" xmlns="http://www.w3.org/2000/svg" xmlns:xlink="http://www.w3.org/1999/xlink">
    <title>search</title>
    <g id="Symbols" stroke="none" stroke-width="1" fill="none" fill-rule="evenodd">
        <g id="navigation" transform="translate(0, -3)" fill="#9398A0" fill-rule="nonzero">
            <g id="search" transform="translate(0, 3)">
                <path d="M14.9500308,10.3876923 C15.626068,9.53228579 15.9957617,8.47490373 16,7.38461538 C16,4.66567508 13.7958634,2.46153846 11.0769231,2.46153846 C8.35798277,2.46153846 6.15384615,4.66567508 6.15384615,7.38461538 C6.15384615,10.1035557 8.35798277,12.3076923 11.0769231,12.3076923 C12.1672114,12.303454 13.2245935,11.9337603 14.08,11.2577231 L17.4113231,14.5889231 C17.652787,14.8221367 18.036606,14.8188015 18.2739807,14.5814268 C18.5113553,14.3440522 18.5146906,13.9602332 18.2814769,13.7187692 L14.9500308,10.3876923 Z M7.38461538,7.38461538 C7.38461538,5.34541015 9.03771785,3.69230769 11.0769231,3.69230769 C13.1161283,3.69230769 14.7692308,5.34541015 14.7692308,7.38461538 C14.7692308,9.42382061 13.1161283,11.0769231 11.0769231,11.0769231 C9.03864575,11.0746847 7.3868538,9.42289271 7.38461538,7.38461538 L7.38461538,7.38461538 Z" id="Shape"></path>
                <path d="M17.8461538,0 L0.615384615,0 C0.275517077,0 0,0.275517077 0,0.615384615 C0,0.955252154 0.275517077,1.23076923 0.615384615,1.23076923 L17.8461538,1.23076923 C18.1860214,1.23076923 18.4615385,0.955252154 18.4615385,0.615384615 C18.4615385,0.275517077 18.1860214,0 17.8461538,0 Z" id="Path"></path>
                <path d="M0.615384615,8.61538462 L4.30769231,8.61538462 C4.64755985,8.61538462 4.92307692,8.33986754 4.92307692,8 C4.92307692,7.66013246 4.64755985,7.38461538 4.30769231,7.38461538 L0.615384615,7.38461538 C0.275517077,7.38461538 0,7.66013246 0,8 C0,8.33986754 0.275517077,8.61538462 0.615384615,8.61538462 Z" id="Path"></path>
                <path d="M0.615384615,12.3076923 L4.30769231,12.3076923 C4.64755985,12.3076923 4.92307692,12.0321752 4.92307692,11.6923077 C4.92307692,11.3524402 4.64755985,11.0769231 4.30769231,11.0769231 L0.615384615,11.0769231 C0.275517077,11.0769231 0,11.3524402 0,11.6923077 C0,12.0321752 0.275517077,12.3076923 0.615384615,12.3076923 Z" id="Path"></path>
                <path d="M0.615384615,16 L14.1538462,16 C14.4937137,16 14.7692308,15.7244829 14.7692308,15.3846154 C14.7692308,15.0447478 14.4937137,14.7692308 14.1538462,14.7692308 L0.615384615,14.7692308 C0.275517077,14.7692308 0,15.0447478 0,15.3846154 C0,15.7244829 0.275517077,16 0.615384615,16 Z" id="Path"></path>
                <path d="M0.615384615,4.92307692 L4.30769231,4.92307692 C4.64755985,4.92307692 4.92307692,4.64755985 4.92307692,4.30769231 C4.92307692,3.96782477 4.64755985,3.69230769 4.30769231,3.69230769 L0.615384615,3.69230769 C0.275517077,3.69230769 0,3.96782477 0,4.30769231 C0,4.64755985 0.275517077,4.92307692 0.615384615,4.92307692 Z" id="Path"></path>
            </g>
        </g>
    </g>
</svg>