<?xml version="1.0" encoding="UTF-8"?>
<svg width="26px" height="25px" viewBox="0 0 26 25" version="1.1" xmlns="http://www.w3.org/2000/svg" xmlns:xlink="http://www.w3.org/1999/xlink">
    <title>search_field</title>
    <g id="Page-1" stroke="none" stroke-width="1" fill="none" fill-rule="evenodd">
        <g id="Artboard-Copy-6" transform="translate(-573, -427)" fill="#545454" fill-rule="nonzero">
            <g id="Group" transform="translate(564.5, 416.5)">
                <g id="search_field" transform="translate(9, 10.5)">
                    <path d="M24.7422724,21.5046766 L18.9158801,15.6778576 C19.905827,14.1018365 20.4803803,12.2390722 20.4803803,10.2399768 C20.4803803,4.58426496 15.8954753,0 10.2399768,0 C4.58447832,0 0,4.58426496 0,10.2399768 C0,15.895902 4.58426496,20.4797402 10.2399768,20.4797402 C12.4155132,20.4797402 14.4306098,19.7995784 16.0887709,18.6438581 L21.8458243,24.4013381 C22.2458567,24.8009439 22.7702726,25 23.2940484,25 C23.8184642,25 24.34224,24.8009439 24.7429125,24.4013381 C25.5423373,23.6010599 25.5423373,22.3047415 24.7422724,21.5046766 Z M10.2399768,17.1621379 C6.41737357,17.1621379 3.31824233,14.0632201 3.31824233,10.2404035 C3.31824233,6.41758692 6.41737357,3.31845568 10.2399768,3.31845568 C14.0627934,3.31845568 17.1617112,6.41758692 17.1617112,10.2404035 C17.1617112,14.0632201 14.0627934,17.1621379 10.2399768,17.1621379 Z" id="Shape"></path>
                </g>
            </g>
        </g>
    </g>
</svg>