<?xml version="1.0" encoding="UTF-8"?>
<svg width="24px" height="25px" viewBox="0 0 24 25" version="1.1" xmlns="http://www.w3.org/2000/svg" xmlns:xlink="http://www.w3.org/1999/xlink">
    <title>gear</title>
    <g id="Page-1" stroke="none" stroke-width="1" fill="none" fill-rule="evenodd">
        <g id="Artboard-Copy-7" transform="translate(-991, -179)" fill="#A7ADB6" fill-rule="nonzero">
            <g id="gear" transform="translate(991, 179.6493)">
                <path d="M23.4671719,9.91190625 L20.71425,9.23489063 C20.5487813,8.71303125 20.3359219,8.20696875 20.0790937,7.72289062 C20.4924375,7.03485937 21.3610781,5.58675 21.3610781,5.58675 C21.52725,5.31004687 21.4832813,4.95571875 21.2553281,4.72776562 L19.2667969,2.73923437 C19.0388437,2.51057812 18.6852188,2.46665625 18.4078125,2.63348438 L16.2682031,3.91546875 C15.7868437,3.66070312 15.2835469,3.44990625 14.7651563,3.28579688 L14.0881406,0.532875 C14.0098125,0.21975 13.7289844,0 13.40625,0 L10.59375,0 C10.2710156,0 9.98948437,0.21975 9.91190625,0.532828125 C9.91190625,0.532828125 9.44292187,2.45423437 9.23554688,3.28509375 C8.68279688,3.46017188 8.14860938,3.68746875 7.63978125,3.964875 L5.42123437,2.63348438 C5.14382812,2.46867188 4.79090625,2.51128125 4.56225,2.73923438 L2.57371875,4.72776562 C2.34576562,4.95571875 2.30179687,5.31004688 2.46796875,5.58675 L3.83990625,7.87809375 C3.61879687,8.314125 3.43340625,8.76796875 3.28579687,9.23282813 L0.532875,9.91190625 C0.21975,9.9901875 0,10.2710156 0,10.59375 L0,13.40625 C0,13.7289844 0.21975,14.0105156 0.532828125,14.0880937 L3.28645313,14.7651094 C3.45332813,15.2945156 3.67026563,15.8088281 3.93328125,16.3025156 L2.70557812,18.3487031 C2.53940625,18.6254062 2.583375,18.9797344 2.81132812,19.2076875 L4.79985937,21.1962187 C5.02715625,21.4235156 5.3814375,21.4667344 5.65884375,21.3019687 C5.65884375,21.3019687 7.0355625,20.4766406 7.70985938,20.0728594 C8.1980625,20.3331094 8.70890625,20.5480312 9.23559375,20.7148594 L9.91195313,23.467125 C9.98948437,23.7802969 10.2710156,24 10.59375,24 L13.40625,24 C13.7289844,24 14.0098125,23.78025 14.0880937,23.4671719 L14.7644531,20.7149062 C15.3062344,20.54325 15.8280469,20.3214375 16.3245,20.0522813 C17.0173125,20.4676875 18.4077656,21.3019688 18.4077656,21.3019688 C18.6844688,21.4674375 19.0387969,21.424875 19.26675,21.1962187 L21.2552812,19.2076875 C21.4832344,18.9797344 21.5272031,18.6254062 21.3610312,18.3487031 L20.0969062,16.24275 C20.3461406,15.7696406 20.5528594,15.2745938 20.7142031,14.7651094 L23.467125,14.0880937 C23.7802969,14.0098125 24,13.7289844 24,13.40625 L24,10.59375 C24,10.2710156 23.7802969,9.9901875 23.4671719,9.91190625 Z M12,16.921875 C9.28635937,16.921875 7.078125,14.7136406 7.078125,12 C7.078125,9.28635937 9.28635937,7.078125 12,7.078125 C14.7136406,7.078125 16.921875,9.28635937 16.921875,12 C16.921875,14.7136406 14.7136406,16.921875 12,16.921875 Z" id="Shape"></path>
            </g>
        </g>
    </g>
</svg>