<?xml version="1.0" encoding="UTF-8"?>
<svg width="13px" height="13px" viewBox="0 0 13 13" version="1.1" xmlns="http://www.w3.org/2000/svg" xmlns:xlink="http://www.w3.org/1999/xlink">
    <title>close</title>
    <g id="Page-1" stroke="none" stroke-width="1" fill="none" fill-rule="evenodd">
        <g id="Artboard-Copy-4" transform="translate(-258, -149)" fill-rule="nonzero">
            <g id="close" transform="translate(258.3463, 149.0772)">
                <path d="M6,0 C2.68640625,0 0,2.68640625 0,6 C0,9.31359375 2.68640625,12 6,12 C9.31359375,12 12,9.31359375 12,6 C12,2.68640625 9.31359375,0 6,0 Z" id="Path" fill="#FF5F56"></path>
                <path d="M9.42100735,8.51156866 C9.67216422,8.76272553 9.67216422,9.16985048 9.42100735,9.42100735 C9.16985048,9.67216422 8.76272553,9.67216422 8.51156866,9.42100735 L6,6.90943869 L3.48843134,9.42100735 C3.23727447,9.67216422 2.83014952,9.67216422 2.57899265,9.42100735 C2.32783578,9.16985048 2.32783578,8.76272553 2.57899265,8.51156866 L5.09056131,6 L2.57899265,3.48843134 C2.32783578,3.23727447 2.32783578,2.83014952 2.57899265,2.57899265 C2.83014952,2.32783578 3.23727447,2.32783578 3.48843134,2.57899265 L6,5.09056131 L8.51156866,2.57899265 C8.76272553,2.32783578 9.16985048,2.32783578 9.42100735,2.57899265 C9.67216422,2.83014952 9.67216422,3.23727447 9.42100735,3.48843134 L6.90943869,6 L9.42100735,8.51156866 Z" id="Path" fill="#990000"></path>
            </g>
        </g>
    </g>
</svg>